<?xml version="1.0" encoding="utf-8"?>
<!-- Generator: Adobe Illustrator 21.1.0, SVG Export Plug-In . SVG Version: 6.00 Build 0)  -->
<svg version="1.1" id="Calque_1" xmlns="http://www.w3.org/2000/svg" xmlns:xlink="http://www.w3.org/1999/xlink" x="0px" y="0px"
	 viewBox="0 0 512 512" style="enable-background:new 0 0 512 512;" xml:space="preserve">
<style type="text/css">
	.st0{display:none;fill:#EDC53F;}
	.st1{fill:#EDC53F;}
	.st2{fill:#FFFFFF;}
	.st3{fill:none;stroke:#EA3F3F;stroke-width:8;stroke-miterlimit:10;}
</style>
<rect class="st0" width="512" height="512"/>
<g>
	<path class="st1" d="M403.1,0h-61.8H170.7h-61.8c-0.1,0-0.1,0-0.2,0C48.7,0.1,0.1,48.7,0.2,108.6v61.9v0.2v170.6H0v61.9
		C0,463.2,48.7,512,108.9,512h62h170.5h61.8c60,0,108.7-48.8,108.9-108.9v-61.9V170.8v-0.2v-61.7C512,48.8,463.3,0,403.1,0z"/>
</g>
<g>
	<path class="st2" d="M88.3,396.8H75.1v-53.5L64,347.5v-11.2l24.3-9V396.8z"/>
	<path class="st2" d="M158.3,363.5c0,4.2-0.7,8.4-2,12.6c-1.3,4.2-3.2,7.9-5.7,11.1c-2.5,3.2-5.5,5.9-9.1,8c-3.6,2-7.7,3-12.3,3
		c-4.5,0-8.7-1-12.3-3c-3.6-2-6.6-4.6-9.1-8c-2.5-3.2-4.4-6.9-5.8-11.1c-1.4-4.2-2-8.3-2-12.6c0-4.4,0.6-8.8,1.8-13.1
		c1.3-4.3,3.1-8.2,5.5-11.7s5.4-6.2,9.1-8.4c3.6-2.1,7.9-3.2,12.6-3.2c4.7,0,9,1,12.6,3.2c3.6,2.2,6.6,5,9.1,8.4
		c2.4,3.5,4.3,7.4,5.5,11.7C157.7,354.8,158.3,359.1,158.3,363.5z M144.6,363.5c0-2.4-0.2-5-0.7-7.9c-0.5-2.9-1.3-5.4-2.5-8
		c-1.2-2.4-2.8-4.5-4.7-6.1c-2-1.6-4.4-2.4-7.3-2.4c-2.8,0-5.2,0.8-7.1,2.5c-2,1.7-3.5,3.7-4.7,6.2c-1.3,2.4-2.1,5.1-2.7,8
		s-0.8,5.4-0.8,7.6c0,2.4,0.2,4.9,0.8,7.5s1.5,5.1,2.7,7.4c1.3,2.3,2.8,4.2,4.7,5.7c2,1.5,4.3,2.2,7.1,2.2c2.8,0,5.1-0.7,7.1-2.2
		c2-1.5,3.5-3.4,4.7-5.5s2.1-4.7,2.7-7.4C144.2,368.4,144.6,365.8,144.6,363.5z"/>
	<path class="st2" d="M219.4,382h-9.6v14.8h-13.1V382h-31.4v-9.4l33.2-44h11.3v42.1h9.6V382z M196.7,370.7V348l-17.3,22.7H196.7z"/>
	<path class="st2" d="M280.9,377.7c0,3.6-0.8,6.7-2.3,9.2c-1.5,2.5-3.5,4.7-6,6.4c-2.4,1.6-5.3,2.9-8.4,3.7s-6.5,1.2-9.8,1.2
		s-6.6-0.3-9.8-1.2s-6-2-8.4-3.7c-2.4-1.6-4.5-3.8-5.9-6.4c-1.5-2.5-2.2-5.7-2.2-9.2c0-1.7,0.3-3.5,0.9-5.1c0.6-1.7,1.5-3.2,2.5-4.7
		c1-1.5,2.3-2.8,3.7-3.8c1.4-1.2,2.9-2,4.4-2.5c-1.4-0.7-2.7-1.5-3.8-2.5c-1.2-1-2.2-2.2-3.1-3.5c-0.9-1.3-1.6-2.7-2.1-4.3
		c-0.5-1.5-0.7-3-0.7-4.6c0-3.1,0.8-5.9,2.3-8.3s3.5-4.4,5.9-6c2.4-1.6,5.1-2.9,8-3.7c3-0.8,5.9-1.3,8.7-1.3c2.9,0,5.8,0.5,8.7,1.3
		c2.9,0.8,5.4,2.1,7.9,3.7c2.3,1.6,4.3,3.7,5.7,6c1.5,2.4,2.2,5.2,2.2,8.3c0,1.6-0.2,3.1-0.7,4.6c-0.5,1.5-1.2,2.9-2.1,4.3
		c-0.9,1.3-1.8,2.4-3.1,3.5c-1.2,1-2.4,1.8-3.8,2.5c1.5,0.6,3,1.4,4.4,2.5c1.4,1.2,2.7,2.4,3.7,3.8c1,1.5,1.8,3,2.5,4.7
		C280.5,374.3,280.9,376,280.9,377.7z M267.2,376.2c0-1.4-0.3-2.7-1-3.8c-0.7-1.2-1.6-2.2-2.8-3.1c-1.2-0.9-2.5-1.6-4-2.1
		c-1.6-0.5-3.2-0.8-5-0.8c-1.7,0-3.5,0.2-5,0.8c-1.6,0.5-2.9,1.3-4,2.1c-1.2,0.9-2.1,2-2.8,3.1c-0.7,1.2-1,2.4-1,3.8
		c0,1.4,0.3,2.7,1,3.8c0.7,1.2,1.6,2.2,2.8,3.1c1.2,0.9,2.5,1.6,4,2.1c1.6,0.5,3.2,0.8,5,0.8c1.7,0,3.5-0.2,5-0.8
		c1.6-0.5,2.9-1.3,4-2.1c1.2-0.9,2.1-2,2.8-3.1C266.9,378.8,267.2,377.5,267.2,376.2z M265.2,348.1c0-1.2-0.2-2.3-0.8-3.4
		c-0.6-1-1.4-2-2.3-2.8c-1-0.8-2.2-1.4-3.5-1.8c-1.3-0.5-2.8-0.7-4.3-0.7c-1.5,0-3,0.2-4.3,0.7c-1.3,0.5-2.4,1-3.5,1.8
		c-1,0.8-1.7,1.7-2.3,2.8c-0.6,1-0.8,2.2-0.8,3.4c0,1.2,0.2,2.3,0.8,3.4c0.6,1,1.4,2,2.3,2.8c1,0.8,2.2,1.4,3.5,1.8s2.8,0.7,4.3,0.7
		c1.5,0,3-0.2,4.3-0.7c1.3-0.5,2.4-1,3.5-1.8c1-0.8,1.7-1.7,2.3-2.8C265,350.4,265.2,349.4,265.2,348.1z"/>
	<path class="st2" d="M341,373.8c0,3.6-0.7,6.8-2,9.8c-1.4,3-3.1,5.5-5.4,7.6c-2.3,2.1-5,3.8-8,5c-3,1.2-6.2,1.8-9.7,1.8
		c-4.9,0-9.5-0.9-13.8-2.7c-4.3-1.7-8.2-4.9-11.8-9.1l9-9.1c0.6,0.8,1.4,1.6,2.3,2.7c0.9,0.9,1.8,1.8,3.1,2.7c1.2,0.8,2.4,1.5,3.9,2
		c1.5,0.6,3.1,0.8,4.9,0.8c2.1,0,3.9-0.3,5.5-0.9c1.7-0.6,3.1-1.4,4.4-2.4c1.3-1,2.2-2.2,2.9-3.7c0.7-1.4,1-3,1-4.6
		c0-1.8-0.3-3.5-1.2-4.9c-0.8-1.4-1.8-2.7-3.2-3.6c-1.4-1-2.9-1.7-4.6-2.3c-1.7-0.5-3.6-0.8-5.5-0.8c-2.2,0-4.3,0.2-6.2,0.8
		c-1.8,0.6-3.8,1.6-5.9,3.1l-6.7-6.8l3.4-30.6l38.3,0.1v11.6h-28l-1.5,12.8c1.4-0.7,3-1.2,4.9-1.5s3.6-0.5,5.2-0.5
		c3.6,0,6.9,0.6,9.9,1.7c3,1.2,5.7,2.8,7.9,4.7c2.2,2,3.9,4.4,5.1,7.2C340.3,367.5,341,370.6,341,373.8z"/>
	<path class="st2" d="M394.6,328.6l-31,68.3h-14.4l26-56.5H345v-11.7h49.6V328.6z"/>
	<path class="st2" d="M448,375.5c0,2.9-0.7,5.7-2,8.4c-1.3,2.7-3.1,5.1-5.3,7.2c-2.2,2.1-5,3.8-8,5.1c-3.1,1.3-6.5,1.8-10.1,1.8
		c-3.5,0-6.7-0.6-9.9-1.8c-3.2-1.3-6.1-3.2-8.7-6c-2.5-2.8-4.6-6.4-6.1-10.9c-1.5-4.5-2.3-10.1-2.3-16.6c0-5.3,0.7-10.1,2-14.4
		c1.4-4.4,3.2-8.1,5.7-11.2c2.4-3.1,5.3-5.5,8.8-7.2c3.5-1.7,7.3-2.5,11.6-2.5c4.9,0,9,0.9,12.6,2.7c3.6,1.7,6.9,4.5,10.1,8.2
		l-8.9,9c-1.6-2.4-3.6-4.3-5.8-5.7c-2.3-1.4-4.9-2.1-7.6-2.1c-2,0-3.7,0.5-5.4,1.3c-1.6,0.9-3.1,2.1-4.3,3.7
		c-1.3,1.6-2.2,3.4-2.9,5.5c-0.7,2.1-1,4.4-1,6.7c1.5-1.2,3.5-2.2,5.7-2.9c2.3-0.7,4.5-1.2,6.6-1.2c3.5,0,6.7,0.6,9.7,1.7
		c3.1,1.2,5.8,2.8,8.1,4.7c2.3,2,4.2,4.4,5.5,7.3C447.3,369,448,372.2,448,375.5z M434.8,374.8c0-1.5-0.3-3-0.9-4.4
		c-0.6-1.4-1.5-2.5-2.7-3.6c-1.2-1-2.4-1.8-3.9-2.4c-1.5-0.6-3.1-0.9-4.9-0.9c-1.7,0-3.4,0.3-4.9,0.9c-1.6,0.6-2.9,1.4-4,2.4
		c-1.2,1-2.1,2.2-2.8,3.6c-0.7,1.4-1,2.8-1,4.4s0.3,3,1,4.4c0.7,1.4,1.6,2.5,2.8,3.6c1.2,1,2.5,1.8,4,2.4c1.6,0.6,3.2,0.9,4.9,0.9
		c1.7,0,3.4-0.3,4.9-0.9c1.5-0.6,2.8-1.4,3.9-2.4c1.2-1,2-2.2,2.7-3.6C434.5,377.8,434.8,376.4,434.8,374.8z"/>
</g>
<g>
	<path class="st2" d="M186.8,183.5h-50.2l26.2-31.1c1-1.3,2.1-2.5,3.1-3.9c1-1.4,2-2.8,2.9-4.2c0.8-1.4,1.5-2.8,2.1-4.3
		c0.5-1.4,0.8-2.8,0.8-4c0-3-0.9-5.4-2.9-7.2c-1.8-1.7-4.3-2.7-7.1-2.7c-3.2,0-6,0.8-8.6,2.4c-2.5,1.6-4.6,3.7-6.4,6.2l-9.2-9.1
		c3-3.8,6.5-6.7,10.3-8.8c3.8-2.1,8.6-3.1,14.2-3.1c3,0,5.8,0.5,8.6,1.3c2.8,0.9,5.2,2.2,7.4,3.9c2.2,1.7,3.9,3.9,5.2,6.6s2,5.7,2,9
		c0,2.3-0.3,4.4-0.9,6.5c-0.6,2.1-1.5,4-2.5,5.9c-1,1.8-2.3,3.8-3.7,5.7c-1.4,1.8-2.9,3.7-4.4,5.7l-9.7,12.1h22.9L186.8,183.5
		L186.8,183.5z"/>
	<path class="st2" d="M252.9,150.2c0,4.2-0.7,8.4-2,12.6c-1.3,4.2-3.2,7.9-5.7,11.1c-2.5,3.2-5.5,5.9-9.1,8c-3.6,2-7.7,3-12.3,3
		c-4.5,0-8.7-1-12.3-3c-3.6-2-6.6-4.6-9.1-8c-2.5-3.2-4.4-6.9-5.8-11.1c-1.4-4.2-2-8.3-2-12.6c0-4.4,0.6-8.8,1.8-13.1
		s3.1-8.2,5.5-11.7c2.4-3.5,5.4-6.2,9.1-8.4c3.6-2.1,7.9-3.2,12.6-3.2s9,1,12.6,3.2c3.6,2.2,6.6,5,9.1,8.4c2.4,3.5,4.3,7.4,5.5,11.7
		C252.3,141.6,252.9,145.8,252.9,150.2z M239.1,150.2c0-2.4-0.2-5-0.7-7.9c-0.5-2.9-1.3-5.4-2.5-8c-1.2-2.4-2.8-4.5-4.7-6.1
		c-2-1.6-4.4-2.4-7.3-2.4c-2.8,0-5.2,0.8-7.1,2.5c-2,1.7-3.5,3.7-4.7,6.2c-1.3,2.4-2.1,5.1-2.7,8c-0.6,2.9-0.8,5.4-0.8,7.6
		c0,2.4,0.2,4.9,0.8,7.5c0.6,2.7,1.5,5.1,2.7,7.4c1.3,2.3,2.8,4.2,4.7,5.7c2,1.5,4.3,2.2,7.1,2.2c2.8,0,5.1-0.7,7.1-2.2
		c2-1.5,3.5-3.4,4.7-5.5s2.1-4.7,2.7-7.4C238.8,155.1,239.1,152.5,239.1,150.2z"/>
	<path class="st2" d="M313.9,168.7h-9.6v14.8h-13.1v-14.8h-31.4v-9.4l33.2-44h11.3v42.1h9.6V168.7z M291.3,157.4v-22.7l-17.3,22.7
		H291.3z"/>
	<path class="st2" d="M375.4,164.5c0,3.6-0.8,6.7-2.3,9.2s-3.5,4.7-6,6.4c-2.4,1.6-5.3,2.9-8.4,3.7c-3.1,0.8-6.4,1.2-9.8,1.2
		s-6.6-0.3-9.8-1.2c-3.2-0.8-6-2-8.4-3.7c-2.4-1.6-4.5-3.8-5.9-6.4c-1.5-2.5-2.2-5.7-2.2-9.2c0-1.7,0.3-3.5,0.9-5.1
		c0.6-1.7,1.5-3.2,2.5-4.7c1-1.5,2.3-2.8,3.7-3.8c1.4-1.2,2.9-2,4.4-2.5c-1.4-0.7-2.7-1.5-3.8-2.5c-1.2-1-2.2-2.2-3.1-3.5
		c-0.9-1.3-1.6-2.7-2.1-4.3c-0.5-1.5-0.7-3-0.7-4.6c0-3.1,0.8-5.9,2.3-8.3c1.5-2.4,3.5-4.4,5.9-6c2.4-1.6,5.1-2.9,8-3.7
		c3-0.8,5.9-1.3,8.7-1.3c2.9,0,5.8,0.5,8.7,1.3c2.9,0.8,5.4,2.1,7.9,3.7c2.3,1.6,4.3,3.7,5.7,6c1.5,2.4,2.2,5.2,2.2,8.3
		c0,1.6-0.2,3.1-0.7,4.6c-0.5,1.5-1.2,2.9-2.1,4.3c-0.9,1.3-1.8,2.4-3.1,3.5c-1.2,1-2.4,1.8-3.8,2.5c1.5,0.6,3,1.4,4.4,2.5
		s2.7,2.4,3.7,3.8c1,1.5,1.8,3,2.5,4.7C375.1,161,375.4,162.7,375.4,164.5z M361.8,162.9c0-1.4-0.3-2.7-1-3.8s-1.6-2.2-2.8-3.1
		c-1.2-0.9-2.5-1.6-4-2.1c-1.6-0.5-3.2-0.8-5-0.8s-3.5,0.2-5,0.8c-1.6,0.5-2.9,1.3-4,2.1c-1.2,0.9-2.1,2-2.8,3.1s-1,2.4-1,3.8
		s0.3,2.7,1,3.8s1.6,2.2,2.8,3.1c1.2,0.9,2.5,1.6,4,2.1c1.6,0.5,3.2,0.8,5,0.8s3.5-0.2,5-0.8c1.6-0.5,2.9-1.3,4-2.1
		c1.2-0.9,2.1-2,2.8-3.1C361.4,165.5,361.8,164.2,361.8,162.9z M359.8,134.9c0-1.2-0.2-2.3-0.8-3.4s-1.4-2-2.3-2.8
		c-1-0.8-2.2-1.4-3.5-1.8c-1.3-0.5-2.8-0.7-4.3-0.7c-1.5,0-3,0.2-4.3,0.7c-1.3,0.5-2.4,1-3.5,1.8c-1,0.8-1.7,1.7-2.3,2.8
		s-0.8,2.2-0.8,3.4s0.2,2.3,0.8,3.4s1.4,2,2.3,2.8c1,0.8,2.2,1.4,3.5,1.8c1.3,0.5,2.8,0.7,4.3,0.7c1.5,0,3-0.2,4.3-0.7
		c1.3-0.5,2.4-1,3.5-1.8c1-0.8,1.7-1.7,2.3-2.8C359.6,137.2,359.8,136.1,359.8,134.9z"/>
</g>
<g>
	<line class="st3" x1="149.4" y1="202.7" x2="362.6" y2="96"/>
	<line class="st3" x1="362.6" y1="202.7" x2="149.4" y2="96"/>
</g>
</svg>
